<svg width="20" height="20" viewBox="0 0 20 20" fill="none" xmlns="http://www.w3.org/2000/svg">
<mask id="mask0_80_9136" style="mask-type:luminance" maskUnits="userSpaceOnUse" x="0" y="0" width="20" height="20">
<path d="M0 0H20V20H0V0Z" fill="white"/>
</mask>
<g mask="url(#mask0_80_9136)">
<path fill-rule="evenodd" clip-rule="evenodd" d="M6.89376 4.37495H7.67001L8.22001 3.82494L9.55751 2.48745C9.61556 2.42924 9.68453 2.38306 9.76046 2.35155C9.8364 2.32005 9.9178 2.30383 10 2.30383C10.0822 2.30383 10.1636 2.32005 10.2395 2.35155C10.3155 2.38306 10.3844 2.42924 10.4425 2.48745L11.78 3.82494L12.33 4.37495H15C15.1658 4.37495 15.3247 4.44079 15.4419 4.558C15.5592 4.67521 15.625 4.83418 15.625 4.99995V7.66995L16.175 8.21995L17.5125 9.55744C17.5707 9.6155 17.6169 9.68447 17.6484 9.7604C17.6799 9.83633 17.6961 9.91774 17.6961 9.99994C17.6961 10.0822 17.6799 10.1636 17.6484 10.2395C17.6169 10.3154 17.5707 10.3844 17.5125 10.4424L16.175 11.7799L15.625 12.3299V14.9999C15.625 15.1657 15.5592 15.3247 15.4419 15.4419C15.3247 15.5591 15.1658 15.6249 15 15.6249H12.33L11.78 16.1749L10.4425 17.5124C10.3844 17.5707 10.3155 17.6168 10.2395 17.6483C10.1636 17.6798 10.0822 17.6961 10 17.6961C9.9178 17.6961 9.8364 17.6798 9.76046 17.6483C9.68453 17.6168 9.61556 17.5707 9.55751 17.5124L8.22001 16.1749L7.67001 15.6249H5.00001C4.83425 15.6249 4.67527 15.5591 4.55806 15.4419C4.44085 15.3247 4.37501 15.1657 4.37501 14.9999V12.3299L3.82501 11.7799L2.48751 10.4424C2.4293 10.3844 2.38312 10.3154 2.35162 10.2395C2.32011 10.1636 2.30389 10.0822 2.30389 9.99994C2.30389 9.91774 2.32011 9.83633 2.35162 9.7604C2.38312 9.68447 2.4293 9.6155 2.48751 9.55744L3.82501 8.21995L4.37501 7.66995V4.99995C4.37501 4.83418 4.44085 4.67521 4.55806 4.558C4.67527 4.44079 4.83425 4.37494 5.00001 4.37495H6.89376ZM11.7688 1.1612C11.5366 0.928754 11.2609 0.744357 10.9574 0.618546C10.6539 0.492735 10.3285 0.427979 10 0.427979C9.67147 0.427979 9.34615 0.492735 9.04265 0.618546C8.73916 0.744357 8.46344 0.928754 8.23126 1.1612L6.89501 2.49995H5.00001C4.33696 2.49995 3.70108 2.76334 3.23224 3.23218C2.7634 3.70102 2.50001 4.3369 2.50001 4.99995V6.89369L1.16126 8.23119C0.928815 8.46338 0.744418 8.7391 0.618607 9.04259C0.492796 9.34609 0.42804 9.67141 0.42804 9.99994C0.42804 10.3285 0.492796 10.6538 0.618607 10.9573C0.744418 11.2608 0.928815 11.5365 1.16126 11.7687L2.50001 13.1049V14.9999C2.50001 15.663 2.7634 16.2989 3.23224 16.7677C3.70108 17.2366 4.33696 17.4999 5.00001 17.4999H6.89376L8.23126 18.8387C8.46344 19.0711 8.73916 19.2555 9.04265 19.3813C9.34615 19.5072 9.67147 19.5719 10 19.5719C10.3285 19.5719 10.6539 19.5072 10.9574 19.3813C11.2609 19.2555 11.5366 19.0711 11.7688 18.8387L13.105 17.4999H15C15.663 17.4999 16.2989 17.2366 16.7678 16.7677C17.2366 16.2989 17.5 15.663 17.5 14.9999V13.1062L18.8388 11.7687C19.0712 11.5365 19.2556 11.2608 19.3814 10.9573C19.5072 10.6538 19.572 10.3285 19.572 9.99994C19.572 9.67141 19.5072 9.34609 19.3814 9.04259C19.2556 8.7391 19.0712 8.46338 18.8388 8.23119L17.5 6.89494V4.99995C17.5 4.3369 17.2366 3.70102 16.7678 3.23218C16.2989 2.76334 15.663 2.49995 15 2.49995H13.1063L11.7688 1.1612ZM13.875 8.06244C13.9489 7.96395 14.0026 7.85188 14.0332 7.73261C14.0637 7.61335 14.0705 7.48924 14.0531 7.36736C14.0357 7.24549 13.9944 7.12823 13.9317 7.02229C13.869 6.91636 13.786 6.82381 13.6875 6.74995C13.589 6.67608 13.4769 6.62233 13.3577 6.59178C13.2384 6.56122 13.1143 6.55446 12.9924 6.57187C12.8705 6.58928 12.7533 6.63052 12.6474 6.69325C12.5414 6.75598 12.4489 6.83895 12.375 6.93745L9.27376 11.0724L7.53751 9.33744C7.35979 9.17184 7.12473 9.08169 6.88185 9.08598C6.63898 9.09026 6.40724 9.18865 6.23548 9.36042C6.06371 9.53218 5.96532 9.76392 5.96104 10.0068C5.95675 10.2497 6.04691 10.4847 6.21251 10.6624L8.71251 13.1624C8.80745 13.2574 8.92168 13.3308 9.04746 13.3778C9.17324 13.4247 9.30764 13.4441 9.44157 13.4346C9.57549 13.4252 9.70582 13.387 9.82373 13.3228C9.94164 13.2586 10.0444 13.1698 10.125 13.0624L13.875 8.06244Z" fill="#12A807"/>
</g>
</svg>
